<?xml version="1.0" standalone="no"?>
<!DOCTYPE svg PUBLIC "-//W3C//DTD SVG 20010904//EN"
 "http://www.w3.org/TR/2001/REC-SVG-20010904/DTD/svg10.dtd">
<svg version="1.0" xmlns="http://www.w3.org/2000/svg"
 width="150.000000pt" height="150.000000pt" viewBox="0 0 150.000000 150.000000"
 preserveAspectRatio="xMidYMid meet">

<g transform="translate(0.000000,150.000000) scale(0.100000,-0.100000)"
fill="#000000" stroke="none">
<path d="M635 1095 l-7 -345 -22 0 c-13 0 -138 5 -280 11 -142 6 -260 8 -263
5 -8 -7 8 -30 136 -194 61 -79 111 -147 111 -150 0 -4 -30 -37 -67 -74 -37
-37 -65 -69 -62 -72 2 -2 53 5 113 16 59 11 109 18 110 16 17 -24 179 -218
190 -227 22 -19 25 -8 33 144 l8 129 290 58 c458 92 506 102 508 112 1 5 -74
30 -168 56 -322 89 -470 132 -485 142 -12 7 -11 8 5 4 30 -7 685 -19 685 -12
0 3 -107 99 -237 214 -131 115 -314 277 -408 360 -93 84 -173 152 -176 152 -4
0 -10 -155 -14 -345z m345 -453 c173 -50 337 -97 363 -104 l49 -13 -155 -32
c-85 -18 -343 -68 -573 -113 -230 -44 -427 -82 -437 -84 -10 -3 44 59 120 137
77 78 175 179 218 225 43 45 84 81 90 79 5 -3 152 -45 325 -95z"/>
</g>
</svg>
